<?xml version="1.0"?>
<svg xmlns="http://www.w3.org/2000/svg" viewBox="0 0 26 26" enable-background="new 0 0 26 26">
    <path style="text-indent:0;text-align:start;line-height:normal;text-transform:none;block-progression:tb;-inkscape-font-specification:Bitstream Vera Sans" d="M 8.8125 0 A 2.0002 2.0002 0 0 0 7.59375 0.59375 L 4.59375 3.59375 L 7.40625 6.40625 L 9.8125 4 L 17.1875 4 L 19 5.8125 L 19 10.75 L 12.09375 14.21875 A 2.0002 2.0002 0 0 0 11 16 L 11 20 L 15 20 L 15 17.25 L 21.90625 13.78125 A 2.0002 2.0002 0 0 0 23 12 L 23 5 A 2.0002 2.0002 0 0 0 22.40625 3.59375 L 19.40625 0.59375 A 2.0002 2.0002 0 0 0 18 0 L 9 0 A 2.0002 2.0002 0 0 0 8.8125 0 z M 11 22 L 11 26 L 15 26 L 15 22 L 11 22 z" overflow="visible" enable-background="accumulate" font-family="Bitstream Vera Sans"/>
</svg>
